<?xml version="1.0" standalone="no"?>
<!DOCTYPE svg PUBLIC "-//W3C//DTD SVG 20010904//EN"
 "http://www.w3.org/TR/2001/REC-SVG-20010904/DTD/svg10.dtd">
<svg version="1.0" xmlns="http://www.w3.org/2000/svg"
 width="700.000000pt" height="700.000000pt" viewBox="0 0 700.000000 700.000000"
 preserveAspectRatio="xMidYMid meet">
<metadata>
Created by potrace 1.11, written by Peter Selinger 2001-2013
</metadata>
<g transform="translate(0.000000,700.000000) scale(0.100000,-0.100000)"
fill="#000000" stroke="none">
<path d="M1598 6978 c-15 -13 -31 -34 -36 -48 -4 -14 -8 -303 -8 -642 l1 -618
-70 0 c-140 0 -197 -76 -158 -213 28 -101 146 -197 241 -197 l22 0 0 -2425 0
-2425 -260 0 c-290 0 -315 -4 -350 -62 -57 -95 9 -254 134 -321 l41 -22 2330
-3 c2203 -2 2333 -1 2379 15 99 36 177 146 177 250 0 62 -16 94 -64 123 -30
19 -52 20 -333 20 l-300 0 0 2424 0 2424 43 6 c121 16 220 121 230 245 9 107
-48 161 -169 161 -38 0 -68 3 -69 8 0 4 -1 105 -2 225 l-2 219 -33 29 c-26 23
-42 29 -80 30 -26 0 -99 1 -162 2 l-115 2 -5 375 c-6 416 -5 411 -72 432 -28
8 -44 8 -68 -2 -65 -27 -64 -19 -65 -479 0 -229 3 -431 6 -450 4 -19 19 -45
33 -59 24 -25 27 -25 190 -25 l166 -1 0 -153 0 -153 -1705 0 -1705 0 2 358 3
357 100 0 99 0 1 -172 0 -172 29 -30 c50 -52 132 -39 165 26 8 15 11 156 11
457 l0 436 -28 31 c-40 44 -96 48 -143 10 l-34 -29 -1 -163 c-1 -90 -2 -170
-3 -176 -1 -10 -28 -13 -101 -13 l-100 0 0 166 c0 209 -8 228 -100 240 -26 3
-42 -1 -62 -18z"/>
<path d="M2423 6981 c-17 -11 -35 -30 -39 -43 -11 -32 -12 -857 -1 -889 4 -15
19 -37 32 -49 24 -23 30 -23 257 -24 192 -2 238 1 262 14 55 29 56 40 56 510
l0 430 -29 32 -29 33 -239 3 c-221 2 -240 1 -270 -17z m357 -190 c4 -1 5 -560
1 -597 -1 -8 -34 -12 -101 -12 l-100 -1 0 307 0 307 98 -1 c53 -1 99 -2 102
-3z"/>
<path d="M3217 6984 c-70 -38 -58 -159 17 -181 17 -5 55 -8 84 -8 l52 1 0
-368 c0 -256 3 -375 12 -392 29 -64 111 -78 162 -27 l31 31 1 362 c1 200 2
370 3 379 1 13 13 16 65 15 51 -1 71 3 93 20 59 44 53 138 -12 168 -48 23
-466 23 -508 0z"/>
<path d="M4001 6965 l-31 -36 0 -435 c0 -472 0 -475 55 -504 20 -11 75 -14
249 -14 253 1 266 5 288 76 10 34 9 44 -6 73 -10 19 -31 39 -46 45 -16 7 -93
12 -181 13 l-154 2 0 100 0 99 160 1 c174 1 195 7 220 55 26 50 21 73 -33 140
-2 3 -81 7 -175 10 l-172 5 0 100 0 100 160 0 c174 1 195 6 220 55 22 43 18
76 -14 112 l-29 33 -240 3 -239 3 -32 -36z"/>
</g>
</svg>
